<?xml version="1.0" encoding="utf-8"?>
<!-- Generator: Adobe Illustrator 27.2.0, SVG Export Plug-In . SVG Version: 6.00 Build 0)  -->
<svg version="1.1" id="Layer_1" xmlns="http://www.w3.org/2000/svg" xmlns:xlink="http://www.w3.org/1999/xlink" x="0px" y="0px"
	 viewBox="0 0 320 320" style="enable-background:new 0 0 320 320;" xml:space="preserve">
<style type="text/css">
	.st0{fill:#00CC96;}
	.st1{fill:#00FFBB;}
	.st2{fill:#A4A9AD;}
	.st3{fill:#1E252B;}
	.st4{fill:#333E48;}
	.st5{fill:#9370DB;}
	.st6{fill:#BF534F;}
	.st7{fill:#FFC843;}
</style>
<path class="st0" d="M246,277.5c0,13.8-11.2,25-25,25H25c-13.8,0-25-11.2-25-25v-235c0-13.8,11.2-25,25-25h196c13.8,0,25,11.2,25,25
	V277.5z"/>
<path class="st1" d="M320,277.5c0,13.8-11.2,25-25,25H99c-13.8,0-25-11.2-25-25v-235c0-13.8,11.2-25,25-25h196c13.8,0,25,11.2,25,25
	V277.5z"/>
<rect x="96" y="41.5" class="st0" width="201.9" height="182"/>
<g>
	<path class="st2" d="M244.5,70.4c-5,0-9,4-9,9s4,9,9,9H298v-18H244.5z"/>
	<rect x="197" y="62.5" class="st3" width="28.5" height="50.7"/>
	<rect x="225.5" y="62.5" class="st4" width="38" height="50.7"/>
	<path class="st2" d="M206.8,70.4H96v18h110.7c5,0,9-4,9-9C215.8,74.4,211.7,70.4,206.8,70.4z"/>
	<path class="st2" d="M219.9,113.2v20.3c0,5.7,4.6,10.4,10.4,10.4s10.4-4.6,10.4-10.4v-20.3H219.9z"/>
</g>
<polygon class="st5" points="248.1,193.1 248.1,162.7 212.4,162.7 212.4,193.1 199.8,193.1 199.8,223.5 260.7,223.5 260.7,193.1 "/>
<rect x="96" y="249.4" class="st4" width="95" height="27.3"/>
<circle class="st6" cx="240.5" cy="263.1" r="13.7"/>
<circle class="st7" cx="284.3" cy="263.1" r="13.7"/>
</svg>
